# xmcd CD database file
#
# Track frame offsets:
#	150
#	15905
#	35220
#	49665
#	67492
#	88157
#	101180
#	105725
#	112300
#	118340
#	121720
#	135000
#	151212
#	161835
#	175550
#	192425
#	205305
#	206625
#	219930
#	234520
#	237072
#	237937
#	243175
#	244012
#	256575
#	263325
#	273900
#
# Disc length: 3838 seconds
#
# Revision: 0
# Processed by: cddbd v1.5.1PL2 Copyright (c) Steve Scherf et al.
# Submitted via: CDex 1.51
#
DISCID=750efc1b
DTITLE=John Lennon - Completed Rarities vol.1
DYEAR=1990
DGENRE=Rock and Roll
TTITLE0=Every Man Has A Woman Who Loves Him [John Solo]
TTITLE1=(Just Like) Starting Over [12"promo only extended version]
TTITLE2=Do The Oz [B Side "God Save Us"]
TTITLE3=Yer Blues [Stereo From "Rock'n Roll Circus"]
TTITLE4=Jam [Stereo From "Rock'n Roll Circus"]
TTITLE5=Attica State [Live On N.Y. "David Frost" TV Show]
TTITLE6=Attica State [Reprise To Emphasise Lyrics]
TTITLE7=Dogtown [John and Yoko In The Studio]
TTITLE8=Will You Touch Me, etc [john and Yoko In The Studio]
TTITLE9=Mucho Mungo [Take 1]
TTITLE10=Mucho Mungo [Take 2]
TTITLE11=Mucho Mungo [Take 3]
TTITLE12=Slippin' Slidin' [Live On "Sir Lew Grade Tribute"]
TTITLE13=Imagine [Live On "Sir Lew Grade Tribute"]
TTITLE14=Serve Yourself [Obsoene Acoustic Version]
TTITLE15=Imagine [Acoustic, Live At The Apollo Thiater N.Y.C.1971]
TTITLE16=Radio Peace [Promo 1969]
TTITLE17=Angel Baby [Unreleased Reject From "Rock'n Roll"]
TTITLE18=I Saw Her Standing There [1974 Rehearsal with Elton John Band]
TTITLE19=Walks and Bridges Radio AO. [Featuring Ringo Starr]
TTITLE20=As Times Go By [John and Yoko]
TTITLE21=Peace Message - Make Love To The End [Proposed Single with Monkeys On Piano!]
TTITLE22=As Times Go By [John Solo]
TTITLE23=Oh My Love [Outtake]
TTITLE24=Lady Marmalade [Recorded During Interview With French TV]
TTITLE25=Give Peace A Chance [1969 Rehearsal]
TTITLE26=Let's Twist Again [1974 Lennon and David Bowie Outtake]
EXTD=YEAR: 1990
EXTT0=
EXTT1=
EXTT2=
EXTT3=
EXTT4=
EXTT5=
EXTT6=
EXTT7=
EXTT8=
EXTT9=
EXTT10=
EXTT11=
EXTT12=
EXTT13=
EXTT14=
EXTT15=
EXTT16=
EXTT17=
EXTT18=
EXTT19=
EXTT20=
EXTT21=
EXTT22=
EXTT23=
EXTT24=
EXTT25=
EXTT26=
PLAYORDER=
